<svg width="1200" height="800" viewBox="0 0 1200 800" xmlns="http://www.w3.org/2000/svg" role="img" aria-labelledby="title desc">
  <title id="title">Al Ogaily Auto Repair Illustration</title>
  <desc id="desc">A stylized auto repair scene with a service garage, car, wrench and gear for the About section.</desc>
  <defs>
    <linearGradient id="bg" x1="0" y1="0" x2="1" y2="1">
      <stop offset="0%" stop-color="#f8fafc"/>
      <stop offset="100%" stop-color="#e2e8f0"/>
    </linearGradient>
    <linearGradient id="carGrad" x1="0" y1="0" x2="1" y2="0">
      <stop offset="0%" stop-color="#ef4444"/>
      <stop offset="100%" stop-color="#b91c1c"/>
    </linearGradient>
    <linearGradient id="garageGrad" x1="0" y1="0" x2="0" y2="1">
      <stop offset="0%" stop-color="#ffffff"/>
      <stop offset="100%" stop-color="#dbeafe"/>
    </linearGradient>
    <linearGradient id="accent" x1="0" y1="0" x2="1" y2="0">
      <stop offset="0%" stop-color="#fca5a5"/>
      <stop offset="100%" stop-color="#dc2626"/>
    </linearGradient>
    <filter id="softShadow" x="-20%" y="-20%" width="140%" height="140%">
      <feDropShadow dx="0" dy="16" stdDeviation="16" flood-color="#000" flood-opacity="0.12"/>
    </filter>
  </defs>
  <rect width="1200" height="800" fill="url(#bg)" />
  <rect x="120" y="160" width="420" height="420" rx="40" fill="url(#garageGrad)" stroke="#94a3b8" stroke-width="8" />
  <path d="M120 260h420" stroke="#64748b" stroke-width="10" stroke-linecap="round" />
  <path d="M240 260v240" stroke="#64748b" stroke-width="10" stroke-linecap="round" />
  <path d="M360 260v240" stroke="#64748b" stroke-width="10" stroke-linecap="round" />
  <path d="M480 260v240" stroke="#64748b" stroke-width="10" stroke-linecap="round" />
  <path d="M120 380h420" stroke="#cbd5e1" stroke-width="10" />
  <path d="M220 420h320" stroke="#94a3b8" stroke-width="8" stroke-linecap="round" />
  <rect x="200" y="260" width="120" height="120" rx="18" fill="#f8fafc" stroke="#cbd5e1" stroke-width="6" />
  <rect x="360" y="260" width="120" height="120" rx="18" fill="#f8fafc" stroke="#cbd5e1" stroke-width="6" />
  <circle cx="680" cy="520" r="160" fill="#ffffff" stroke="#cbd5e1" stroke-width="12" filter="url(#softShadow)" />
  <path d="M562 510c-32 18-58 45-75 79-18 37-20 77-5 110 16 36 48 63 86 72 44 11 91 1 126-28 37-31 57-80 50-130-6-45-35-84-74-103-32-16-72-18-108-0.9Z" fill="#ffffff" stroke="#64748b" stroke-width="10" />
  <path d="M640 520c-28 20-88 32-120 72" stroke="#ef4444" stroke-width="16" stroke-linecap="round" />
  <circle cx="558" cy="665" r="22" fill="#64748b" />
  <circle cx="718" cy="665" r="22" fill="#64748b" />
  <path d="M470 540h380" stroke="#cbd5e1" stroke-width="20" stroke-linecap="round" />
  <path d="M530 350c24-10 54-14 82-10 44 6 85 32 116 68 14 17 18 42 8 62l-10 18" stroke="#ef4444" stroke-width="16" fill="none" stroke-linecap="round" />
  <path d="M510 480c32-22 76-34 118-34 51 0 102 20 141 57" stroke="#b91c1c" stroke-width="18" fill="none" stroke-linecap="round" />
  <circle cx="780" cy="320" r="66" fill="#fef2f2" stroke="#dc2626" stroke-width="18" />
  <path d="M780 260v-92" stroke="#dc2626" stroke-width="18" stroke-linecap="round" />
  <path d="M740 300h80" stroke="#dc2626" stroke-width="18" stroke-linecap="round" />
  <path d="M740 235l50 50" stroke="#dc2626" stroke-width="18" stroke-linecap="round" />
  <path d="M740 285l50-50" stroke="#dc2626" stroke-width="18" stroke-linecap="round" />
  <rect x="720" y="120" width="260" height="220" rx="24" fill="#ffffff" stroke="#94a3b8" stroke-width="10" />
  <path d="M760 160h180" stroke="#64748b" stroke-width="16" stroke-linecap="round" />
  <path d="M760 230h180" stroke="#64748b" stroke-width="16" stroke-linecap="round" />
  <path d="M760 300h130" stroke="#64748b" stroke-width="16" stroke-linecap="round" />
  <rect x="180" y="620" width="760" height="140" rx="70" fill="#ffffff" stroke="#cbd5e1" stroke-width="10" />
  <circle cx="320" cy="710" r="42" fill="#1e293b" />
  <circle cx="620" cy="710" r="42" fill="#1e293b" />
  <path d="M280 640h560" stroke="#ef4444" stroke-width="24" stroke-linecap="round" />
  <path d="M260 640 q35 -80 90 -90 h180 q55 10 90 90" fill="#ef4444" />
  <path d="M260 640 q35 -68 90 -78 h180 q55 10 90 78" fill="#dc2626" opacity="0.9" />
  <circle cx="260" cy="640" r="24" fill="#ffffff" opacity="0.65" />
  <circle cx="620" cy="640" r="24" fill="#ffffff" opacity="0.65" />
  <circle cx="740" cy="650" r="14" fill="#ffffff" opacity="0.8" />
</svg>
